<svg width="33" height="24" viewBox="0 0 33 24" fill="none" xmlns="http://www.w3.org/2000/svg">
    <path
        d="M2 10.5C1.17157 10.5 0.5 11.1716 0.5 12C0.5 12.8284 1.17157 13.5 2 13.5V10.5ZM32.5607 13.0607C33.1464 12.4749 33.1464 11.5251 32.5607 10.9393L23.0147 1.3934C22.4289 0.807612 21.4792 0.807612 20.8934 1.3934C20.3076 1.97918 20.3076 2.92893 20.8934 3.51472L29.3787 12L20.8934 20.4853C20.3076 21.0711 20.3076 22.0208 20.8934 22.6066C21.4792 23.1924 22.4289 23.1924 23.0147 22.6066L32.5607 13.0607ZM2 13.5H31.5V10.5H2V13.5Z"
    />
</svg>