<svg class="info" width="87" height="87" viewBox="0 0 87 87" fill="none"
    xmlns="http://www.w3.org/2000/svg">
    <circle cx="43.5" cy="43.5" r="38.5" stroke="black" stroke-width="10" />
    <path
        d="M37.3239 53.7372V52.892C37.3404 49.992 37.5973 47.6802 38.0945 45.9567C38.6082 44.2332 39.3539 42.8411 40.3317 41.7805C41.3094 40.7199 42.486 39.7588 43.8615 38.897C44.889 38.2341 45.8087 37.5464 46.6207 36.8338C47.4328 36.1212 48.0791 35.334 48.5597 34.4723C49.0402 33.594 49.2805 32.6162 49.2805 31.5391C49.2805 30.3956 49.0071 29.393 48.4602 28.5312C47.9134 27.6695 47.1759 27.0066 46.2479 26.5426C45.3364 26.0786 44.3255 25.8466 43.2152 25.8466C42.138 25.8466 41.1188 26.0869 40.1577 26.5675C39.1965 27.0315 38.4093 27.7275 37.7962 28.6555C37.183 29.567 36.8516 30.7022 36.8018 32.0611H26.6598C26.7427 28.7467 27.5381 26.0123 29.0462 23.858C30.5542 21.687 32.5511 20.0713 35.0369 19.0107C37.5227 17.9335 40.2654 17.3949 43.2649 17.3949C46.5627 17.3949 49.4794 17.9418 52.0149 19.0355C54.5504 20.1127 56.5391 21.6787 57.9808 23.7337C59.4226 25.7886 60.1435 28.2661 60.1435 31.1662C60.1435 33.1051 59.8203 34.8286 59.174 36.3366C58.5443 37.8281 57.6577 39.1539 56.5142 40.3139C55.3707 41.4574 54.0201 42.4931 52.4624 43.4212C51.1532 44.2 50.076 45.0121 49.2308 45.8572C48.4022 46.7024 47.7808 47.6802 47.3665 48.7905C46.9688 49.9008 46.7616 51.268 46.745 52.892V53.7372H37.3239ZM42.2457 69.6463C40.5885 69.6463 39.1716 69.0663 37.995 67.9062C36.835 66.7296 36.2633 65.321 36.2798 63.6804C36.2633 62.0563 36.835 60.6643 37.995 59.5043C39.1716 58.3442 40.5885 57.7642 42.2457 57.7642C43.8201 57.7642 45.2038 58.3442 46.397 59.5043C47.5902 60.6643 48.1951 62.0563 48.2116 63.6804C48.1951 64.7741 47.9051 65.7768 47.3416 66.6882C46.7947 67.5831 46.0739 68.304 45.179 68.8509C44.2841 69.3812 43.3063 69.6463 42.2457 69.6463Z"
        fill="black" />
</svg>