<svg width="108" height="99" viewBox="0 0 108 99" fill="none" xmlns="http://www.w3.org/2000/svg">
<path d="M106.475 28.4749C107.842 27.108 107.842 24.892 106.475 23.5251L84.201 1.25126C82.8342 -0.115572 80.6181 -0.115572 79.2513 1.25126C77.8844 2.6181 77.8844 4.83418 79.2513 6.20101L99.0503 26L79.2513 45.799C77.8844 47.1658 77.8844 49.3819 79.2513 50.7487C80.6181 52.1156 82.8342 52.1156 84.201 50.7487L106.475 28.4749ZM4 29.5H104V22.5H4V29.5Z" fill="black"/>
<path d="M1.52512 70.5251C0.158295 71.892 0.158295 74.108 1.52512 75.4749L23.799 97.7487C25.1658 99.1156 27.3819 99.1156 28.7487 97.7487C30.1156 96.3819 30.1156 94.1658 28.7487 92.799L8.94975 73L28.7487 53.201C30.1156 51.8342 30.1156 49.6181 28.7487 48.2513C27.3819 46.8844 25.1658 46.8844 23.799 48.2513L1.52512 70.5251ZM104 69.5L4 69.5V76.5L104 76.5V69.5Z" fill="black"/>
</svg>
